#!OML:ASF E:\Style4\Style4.ASF
:FULLY-SPECIFIED
:DEGREES
1869
root 0.434391 17.4856 -1.52386 -3.16406 -3.21798 3.91987
lowerback 6.66223 2.69531 -0.464609
upperback 2.45023 3.53087 -1.47613
thorax -1.13798 1.76712 -1.52052
lowerneck 0.582879 -4.03304 -5.85858
upperneck 11.3429 -5.66713 4.26722
head 3.95897 -2.88624 2.27593
rclavicle -4.75468e-014 6.06293e-015
rhumerus 37.8451 -8.85527 -42.5271
rradius 72.4174
rwrist -41.9651
rhand -18.5691 23.7141
rfingers 7.12502
rthumb 7.72103 -6.1249
lclavicle -4.75468e-014 6.06293e-015
lhumerus 34.8735 3.00743 41.2855
lradius 85.9565
lwrist 53.404
lhand -9.47202 24.5534
lfingers 7.12502
lthumb 16.492 53.8724
rfemur -15.0103 2.52327 12.763
rtibia 39.6722
rfoot -20.3872 -11.1565
rtoes -14.1581
lfemur -11.5771 1.44813 -24.3545
ltibia 35.6266
lfoot -21.4328 8.10291
ltoes -13.9399
1870
root 0.432856 17.4911 -1.51731 -3.15152 -3.20789 4.0085
lowerback 6.65004 2.72298 -0.550036
upperback 2.44279 3.56175 -1.51397
thorax -1.14094 1.78236 -1.51365
lowerneck 0.470234 -4.07583 -5.89825
upperneck 11.2532 -5.72823 4.39199
head 3.95982 -2.91207 2.32188
rclavicle 1.02374e-014 1.31198e-014
rhumerus 36.5546 -8.06817 -42.1168
rradius 73.3656
rwrist -41.4886
rhand -18.9318 23.9235
rfingers 7.12502
rthumb 7.37094 -5.92807
lclavicle 1.02374e-014 1.31198e-014
lhumerus 33.8312 2.01886 41.1023
lradius 86.9631
lwrist 52.6458
lhand -9.5513 24.4168
lfingers 7.12502
lthumb 16.4157 53.7422
rfemur -14.9411 2.52082 12.6677
rtibia 39.558
rfoot -20.3803 -11.1337
rtoes -14.0275
lfemur -11.4754 1.39982 -24.4555
ltibia 35.4601
lfoot -21.4446 8.15268
ltoes -13.9218
1871
root 0.431779 17.4975 -1.50749 -3.10854 -3.1883 4.07775
lowerback 6.53992 2.71891 -0.636092
upperback 2.4434 3.55258 -1.53479
thorax -1.08336 1.77774 -1.48043
lowerneck 0.51554 -4.07677 -5.86989
upperneck 10.9794 -5.73147 4.45383
head 3.85514 -2.91018 2.33834
rclavicle 2.86623e-014 -4.96962e-016
rhumerus 35.2944 -7.16585 -41.8314
rradius 74.3853
rwrist -41.1208
rhand -19.289 24.3212
rfingers 7.12502
rthumb 7.02622 -5.5422
lclavicle 2.86623e-014 -4.96962e-016
lhumerus 32.6846 1.03614 40.9489
lradius 87.9662
lwrist 51.8311
lhand -9.56567 24.31
lfingers 7.12502
lthumb 16.4019 53.6366
rfemur -14.8927 2.53749 12.5872
rtibia 39.4568
rfoot -20.343 -11.1731
rtoes -14.1705
lfemur -11.3906 1.36452 -24.538
ltibia 35.2919
lfoot -21.4269 8.10544
ltoes -13.5652
1872
root 0.429956 17.502 -1.49834 -3.04524 -3.18516 4.08468
lowerback 6.43664 2.73013 -0.685163
upperback 2.42838 3.56633 -1.52254
thorax -1.04506 1.78445 -1.43643
lowerneck 0.573289 -4.09471 -5.76108
upperneck 10.6641 -5.74956 4.41889
head 3.72695 -2.91594 2.30636
rclavicle 2.00027e-014 -3.77691e-015
rhumerus 33.9881 -6.25329 -41.6021
rradius 75.5013
rwrist -40.7572
rhand -19.6362 24.4987
rfingers 7.12502
rthumb 6.69101 -5.37559
lclavicle 2.00027e-014 -3.77691e-015
lhumerus 31.4845 -0.0278272 40.8771
lradius 88.9726
lwrist 51.0326
lhand -9.64303 24.0744
lfingers 7.12502
lthumb 16.3274 53.4071
rfemur -14.8642 2.56758 12.5811
rtibia 39.3517
rfoot -20.3498 -11.1695
rtoes -14.0017
lfemur -11.3501 1.32051 -24.549
ltibia 35.1378
lfoot -21.3038 8.11912
ltoes -13.2689
1873
root 0.427724 17.5062 -1.49279 -3.02547 -3.19685 4.0198
lowerback 6.44643 2.74627 -0.706046
upperback 2.40306 3.58664 -1.4716
thorax -1.08075 1.79414 -1.3754
lowerneck 0.557226 -4.11458 -5.58724
upperneck 10.4308 -5.76183 4.29059
head 3.635 -2.91889 2.22983
rclavicle -3.37188e-014 -7.25564e-015
rhumerus 32.6145 -5.26609 -41.358
rradius 76.6566
rwrist -40.5545
rhand -19.933 24.561
rfingers 7.12502
rthumb 6.40448 -5.32217
lclavicle -3.37188e-014 -7.25564e-015
lhumerus 30.1979 -1.04979 40.938
lradius 90.0704
lwrist 50.4584
lhand -9.56116 23.9286
lfingers 7.12502
lthumb 16.4062 53.2548
rfemur -14.7995 2.62998 12.6703
rtibia 39.2361
rfoot -20.3146 -11.2468
rtoes -14.1042
lfemur -11.2854 1.2729 -24.4749
ltibia 35.0044
lfoot -21.2237 8.12324
ltoes -12.8933
1874
root 0.42494 17.511 -1.48538 -3.017 -3.19678 4.02053
lowerback 6.41883 2.7723 -0.766853
upperback 2.39399 3.61805 -1.46281
thorax -1.07853 1.80954 -1.3336
lowerneck 0.523139 -4.15285 -5.39903
upperneck 10.2413 -5.80279 4.19422
head 3.56473 -2.93444 2.16066
rclavicle -1.44864e-014 1.10325e-014
rhumerus 31.1712 -4.33084 -41.2275
rradius 77.9122
rwrist -40.4285
rhand -20.1034 24.1946
rfingers 7.12502
rthumb 6.23995 -5.69349
lclavicle -1.44864e-014 1.10325e-014
lhumerus 28.908 -2.11478 41.1028
lradius 91.2244
lwrist 49.9064
lhand -9.52583 23.8015
lfingers 7.12502
lthumb 16.4402 53.1248
rfemur -14.7082 2.66256 12.6873
rtibia 39.1074
rfoot -20.2447 -11.342
rtoes -14.3971
lfemur -11.1948 1.26299 -24.469
ltibia 34.8878
lfoot -21.2771 8.13643
ltoes -12.8595
1875
root 0.423064 17.517 -1.47537 -2.98117 -3.16077 3.99689
lowerback 6.35242 2.78013 -0.801616
upperback 2.3843 3.62787 -1.43765
thorax -1.05532 1.81426 -1.28586
lowerneck 0.383113 -4.1899 -5.3931
upperneck 10.1596 -5.85107 4.26715
head 3.56843 -2.95404 2.18022
rclavicle -3.72721e-014 9.44227e-015
rhumerus 29.6414 -3.38729 -41.2486
rradius 79.4439
rwrist -40.2577
rhand -20.0935 23.657
rfingers 7.12502
rthumb 6.24957 -6.23083
lclavicle -3.72721e-014 9.44227e-015
lhumerus 27.6459 -3.26284 41.2462
lradius 92.3579
lwrist 49.2539
lhand -9.65503 23.5606
lfingers 7.12502
lthumb 16.3158 52.8942
rfemur -14.6218 2.65783 12.7184
rtibia 38.9604
rfoot -20.1789 -11.3876
rtoes -14.5143
lfemur -11.1244 1.20199 -24.4475
ltibia 34.7795
lfoot -21.2875 8.20872
ltoes -13.1461
1876
root 0.419253 17.5225 -1.46695 -2.96913 -3.13763 3.93229
lowerback 6.36958 2.78167 -0.83009
upperback 2.35606 3.62821 -1.3801
thorax -1.09943 1.81396 -1.21297
lowerneck 0.0885389 -4.21463 -5.73381
upperneck 10.2778 -5.89917 4.64358
head 3.70143 -2.97491 2.36426
rclavicle -8.88319e-015 -1.77912e-014
rhumerus 28.1231 -2.31861 -41.2966
rradius 80.8053
rwrist -39.8971
rhand -20.1505 23.74
rfingers 7.12502
rthumb 6.19456 -6.14944
lclavicle -8.88319e-015 -1.77912e-014
lhumerus 26.3304 -4.50758 41.368
lradius 93.4197
lwrist 48.4679
lhand -9.79168 23.2571
lfingers 7.12502
lthumb 16.1842 52.6014
rfemur -14.5093 2.70178 12.8086
rtibia 38.7988
rfoot -20.1417 -11.4014
rtoes -14.211
lfemur -11.0494 1.17024 -24.3651
ltibia 34.6682
lfoot -21.2276 8.21735
ltoes -13.1441
1877
root 0.416121 17.5283 -1.45878 -2.96805 -3.10451 3.80901
lowerback 6.39883 2.76015 -0.796567
upperback 2.34231 3.60198 -1.30381
thorax -1.13309 1.80058 -1.15362
lowerneck -0.053234 -4.21466 -5.86646
upperneck 10.1541 -5.89817 4.78837
head 3.6975 -2.97272 2.43596
rclavicle -1.50828e-014 9.44227e-015
rhumerus 26.7091 -1.18108 -41.3894
rradius 81.8404
rwrist -39.4174
rhand -20.1638 24.3214
rfingers 7.12502
rthumb 6.18172 -5.56841
lclavicle -1.50828e-014 9.44227e-015
lhumerus 24.9669 -5.74679 41.5103
lradius 94.4946
lwrist 47.5578
lhand -9.93902 23.1897
lfingers 7.12502
lthumb 16.0424 52.5456
rfemur -14.3642 2.74673 12.9694
rtibia 38.6247
rfoot -20.1119 -11.4479
rtoes -14.0532
lfemur -10.9599 1.10377 -24.2182
ltibia 34.5498
lfoot -21.1791 8.2097
ltoes -12.8098
1878
root 0.412651 17.5354 -1.44928 -2.93792 -3.0878 3.77763
lowerback 6.36715 2.75967 -0.816364
upperback 2.33455 3.60109 -1.2718
thorax -1.12681 1.79995 -1.10828
lowerneck -0.00807612 -4.22653 -5.84176
upperneck 9.76484 -5.90319 4.76349
head 3.55011 -2.97522 2.42309
rclavicle 2.09966e-015 6.65929e-015
rhumerus 25.2188 -0.104154 -41.616
rradius 83.0268
rwrist -38.9177
rhand -20.0623 24.2445
rfingers 7.12502
rthumb 6.27969 -5.64244
lclavicle 2.09966e-015 6.65929e-015
lhumerus 23.6188 -7.05077 41.7303
lradius 95.5823
lwrist 46.5928
lhand -10.1705 23.0595
lfingers 7.12502
lthumb 15.8195 52.4331
rfemur -14.2575 2.79449 13.0246
rtibia 38.4536
rfoot -20.1037 -11.4908
rtoes -14.0787
lfemur -10.895 1.06638 -24.1793
ltibia 34.4263
lfoot -21.154 8.26918
ltoes -12.9972
